<?xml version="1.0" encoding="utf-8"?>
<!-- Generator: Adobe Illustrator 26.0.3, SVG Export Plug-In . SVG Version: 6.00 Build 0)  -->
<svg version="1.1" id="Layer_1" xmlns="http://www.w3.org/2000/svg" xmlns:xlink="http://www.w3.org/1999/xlink" x="0px" y="0px"
	 viewBox="0 0 72 62.68" style="enable-background:new 0 0 72 62.68;" xml:space="preserve">
<style type="text/css">
	.st0{fill:#ED1C24;}
	.st1{fill:none;stroke:#FFFFFF;stroke-width:7;stroke-linecap:round;stroke-linejoin:round;stroke-miterlimit:10;}
	.st2{fill:none;stroke:#FFFFFF;stroke-width:5;stroke-linecap:round;stroke-linejoin:round;stroke-miterlimit:10;}
</style>
<g>
	<path class="st0" d="M35.68,7.72c-0.08-0.04-0.11-0.05-0.12-0.07c-0.09-0.09-0.18-0.19-0.28-0.28c-5.9-5.88-12.91-7.77-20.98-5.83
		C6,3.53,1.01,11.04,0.78,18.4c-0.11,3.65,0.65,7.14,1.99,10.51c2.51,6.3,6.31,11.74,11.13,16.48c6.46,6.36,13.74,11.62,21.47,16.31
		c0.25,0.15,0.42,0.1,0.63-0.04c3-1.98,6.05-3.88,8.99-5.94c5.08-3.58,9.85-7.53,14.1-12.08c4.39-4.7,7.8-10.03,9.94-16.11
		c1.41-3.99,1.99-8.09,1.08-12.27c-1.14-5.22-4-9.26-8.63-11.95c-2.97-1.73-6.27-2.42-9.7-2.5c-4.38-0.11-8.39,1.04-12.05,3.46
		C38.25,5.25,36.91,6.42,35.68,7.72z"/>
</g>
<g>
	<path class="st0" d="M35.68,7.72c-0.08-0.04-0.11-0.05-0.12-0.07c-0.09-0.09-0.18-0.19-0.28-0.28c-5.9-5.88-12.91-7.77-20.98-5.83
		C6,3.53,1.01,11.04,0.78,18.4c-0.11,3.65,0.65,7.14,1.99,10.51c2.51,6.3,6.31,11.74,11.13,16.48c6.46,6.36,13.74,11.62,21.47,16.31
		c0.25,0.15,0.42,0.1,0.63-0.04c3-1.98,6.05-3.88,8.99-5.94c5.08-3.58,9.85-7.53,14.1-12.08c4.39-4.7,7.8-10.03,9.94-16.11
		c1.41-3.99,1.99-8.09,1.08-12.27c-1.14-5.22-4-9.26-8.63-11.95c-2.97-1.73-6.27-2.42-9.7-2.5c-4.38-0.11-8.39,1.04-12.05,3.46
		C38.25,5.25,36.91,6.42,35.68,7.72z"/>
</g>
<g>
	<polyline class="st1" points="26.93,18.14 14.73,30.34 26.85,42.45 	"/>
	<line class="st1" x1="14.73" y1="30.34" x2="56.58" y2="30.34"/>
</g>
</svg>
