<?xml version="1.0" encoding="utf-8"?>
<!-- Generator: Adobe Illustrator 26.0.3, SVG Export Plug-In . SVG Version: 6.00 Build 0)  -->
<svg version="1.1" id="Layer_1" xmlns="http://www.w3.org/2000/svg" xmlns:xlink="http://www.w3.org/1999/xlink" x="0px" y="0px"
	 viewBox="0 0 72 62.68" style="enable-background:new 0 0 72 62.68;" xml:space="preserve">
<style type="text/css">
	.st0{fill:#ED1C24;}
	.st1{fill:none;stroke:#FFFFFF;stroke-width:7;stroke-linecap:round;stroke-linejoin:round;stroke-miterlimit:10;}
	.st2{fill:none;stroke:#FFFFFF;stroke-width:5;stroke-linecap:round;stroke-linejoin:round;stroke-miterlimit:10;}
</style>
<g>
	<g>
		<path class="st0" d="M36.02,7.76c-0.08-0.04-0.11-0.05-0.12-0.07c-0.09-0.09-0.18-0.19-0.28-0.28c-5.9-5.88-12.91-7.77-20.98-5.83
			c-8.31,2-13.3,9.51-13.52,16.87c-0.11,3.65,0.65,7.14,1.99,10.51c2.51,6.3,6.31,11.74,11.13,16.48
			c6.46,6.36,13.74,11.62,21.47,16.31c0.25,0.15,0.42,0.1,0.63-0.04c3-1.98,6.05-3.88,8.99-5.94c5.08-3.58,9.85-7.53,14.1-12.08
			c4.39-4.7,7.8-10.03,9.94-16.11c1.41-3.99,1.99-8.09,1.08-12.27c-1.14-5.22-4-9.26-8.63-11.95c-2.97-1.73-6.27-2.42-9.7-2.5
			c-4.38-0.11-8.39,1.04-12.05,3.46C38.59,5.29,37.26,6.46,36.02,7.76z"/>
	</g>
	<g>
		<g>
			<g>
				<polyline class="st2" points="51.61,20.12 40.64,20.12 25.92,37.03 15.08,37.03 				"/>
			</g>
			<polyline class="st2" points="51.3,24.87 56.92,19.92 51.33,15 			"/>
		</g>
		<g>
			<g>
				<polyline class="st2" points="51.61,36.32 40.64,36.32 25.92,20.28 15.08,20.28 				"/>
			</g>
			<polyline class="st2" points="51.3,31.57 56.92,36.52 51.33,41.44 			"/>
		</g>
	</g>
</g>
</svg>
